<svg xmlns="http://www.w3.org/2000/svg" viewBox="0 0 391.89 506.76"><defs><style>.cls-1{fill:#fa6342;}</style></defs><title>wastaicon</title><g id="Layer_3" data-name="Layer 3"><path class="cls-1" d="M384.15,446.28,357.34,150.59a45.21,45.21,0,0,0-15.07-29.85,47.37,47.37,0,0,0-31.52-11.94H280.32V94.56a89.66,89.66,0,0,0-179.31,0V108.8H70.56A47.39,47.39,0,0,0,39,120.74,45.33,45.33,0,0,0,24,150.59L6.42,344.3a56.73,56.73,0,0,0,29.23,55.53c19,10.63,37.66,8.14,55.38-.11-13.32,22.35-20.67,45.9-9.7,67.51a55.82,55.82,0,0,0,50.53,31.07h205.7a46.09,46.09,0,0,0,35-15.72,45.77,45.77,0,0,0,9.65-16.82A49.57,49.57,0,0,0,384.15,446.28ZM125,94.56a65.7,65.7,0,0,1,131.4,0V108.8H125Zm234.44,364a22,22,0,0,1-4.69,8.13,21.7,21.7,0,0,1-17.15,7.69H131.86a31.72,31.72,0,0,1-29.19-17.89c-11.74-23.12,17.41-58.85,39.76-86.25,5.77-7.08,11.14-13.65,15.37-19.44a11.94,11.94,0,0,0-16.75-16.65c-5.35,4-11.07,8.68-17,13.62-24.22,20-53.55,44.16-76.65,31.23a33,33,0,0,1-17.18-32.53L47.74,152.74A21.65,21.65,0,0,1,55,138.61a23.5,23.5,0,0,1,15.61-5.85H101v22.68a20.61,20.61,0,1,0,23.95,0V132.76h131.4v22.68a20.62,20.62,0,1,0,24,0V132.76h30.43a23.52,23.52,0,0,1,15.62,5.85,21.49,21.49,0,0,1,7.19,14.13l26.81,295.69A25.56,25.56,0,0,1,359.4,458.54Z"/></g><g id="Layer_2" data-name="Layer 2"><path class="cls-1" d="M273,289.17a13.37,13.37,0,0,0,4-7.74l7.68-52.4a13.33,13.33,0,0,0-14.42-15.2l-52.73,4.89a13.39,13.39,0,0,0-7.94,3.6l-82.84,78.55a18.19,18.19,0,0,0-.68,25.71L164.44,367a18.19,18.19,0,0,0,25.71.68Zm-19.93-56.45a8.72,8.72,0,1,1-.27,10.22A8.73,8.73,0,0,1,253.06,232.72Z"/></g></svg>