<svg version="1.2" baseProfile="tiny-ps" xmlns="http://www.w3.org/2000/svg" viewBox="0 0 1096 508" width="1096" height="508">
	<title>wastalogo-01 (3)-svg</title>
	<style>
		tspan { white-space:pre }
		.shp0 { fill: #fa6342 } 
		.shp1 { fill: #2a3c53 } 
	</style>
	<path id="Layer" fill-rule="evenodd" class="shp0" d="M386.07 453.6C386.07 455.24 385.99 456.88 385.83 458.52C385.66 460.15 385.42 461.78 385.09 463.39C384.77 465 384.36 466.59 383.88 468.16C383.39 469.71 382.81 471.24 382.16 472.73C381.5 474.22 380.77 475.68 379.96 477.09C379.15 478.5 378.26 479.87 377.31 481.19C376.35 482.51 375.32 483.77 374.23 484.98C372.06 487.46 369.62 489.71 366.97 491.67C364.31 493.63 361.45 495.3 358.44 496.66C355.43 498.01 352.28 499.03 349.05 499.71C345.82 500.39 342.53 500.72 339.23 500.7L133.53 500.7C128.31 500.75 123.11 500.07 118.08 498.67C113.05 497.27 108.24 495.17 103.79 492.44C99.34 489.71 95.3 486.36 91.79 482.5C88.27 478.64 85.31 474.31 83 469.63C72 448 79.39 424.47 92.7 402.12C74.99 410.38 56.32 412.86 37.32 402.24C32.45 399.58 28 396.21 24.11 392.25C20.21 388.3 16.92 383.79 14.34 378.88C11.75 373.97 9.9 368.7 8.85 363.25C7.79 357.81 7.54 352.23 8.1 346.71L25.66 153C25.92 150.16 26.44 147.35 27.22 144.61C28.01 141.86 29.05 139.2 30.34 136.65C31.62 134.11 33.15 131.69 34.89 129.43C36.63 127.17 38.58 125.08 40.72 123.19C42.87 121.28 45.19 119.57 47.64 118.09C50.1 116.6 52.69 115.34 55.38 114.32C58.06 113.3 60.84 112.53 63.66 112.02C66.49 111.5 69.36 111.24 72.23 111.25L102.69 111.25L102.69 97C102.94 73.39 112.49 50.82 129.28 34.21C146.07 17.6 168.73 8.29 192.35 8.29C215.96 8.29 238.62 17.6 255.41 34.21C272.2 50.82 281.75 73.39 282 97L282 111.21L312.4 111.21C315.27 111.2 318.14 111.46 320.97 111.97C323.8 112.49 326.57 113.26 329.26 114.28C331.95 115.3 334.54 116.56 336.99 118.04C339.45 119.53 341.77 121.24 343.92 123.15C346.06 125.04 348.02 127.13 349.76 129.4C351.51 131.66 353.03 134.08 354.32 136.63C355.61 139.18 356.65 141.85 357.44 144.59C358.22 147.34 358.75 150.15 359 153L385.83 448.68C385.99 450.31 386.07 451.96 386.07 453.6ZM126.64 111.25L258 111.25L258 97C257.58 79.86 250.47 63.57 238.2 51.59C225.93 39.62 209.46 32.92 192.32 32.92C175.18 32.92 158.71 39.62 146.44 51.59C134.17 63.57 127.06 79.86 126.64 97L126.64 111.25ZM361.08 461C361.32 460.18 361.53 459.35 361.69 458.5C361.85 457.66 361.97 456.81 362.05 455.96C362.13 455.11 362.16 454.25 362.15 453.39C362.14 452.54 362.09 451.68 362 450.83L335.24 155.13C335.11 153.78 334.86 152.45 334.48 151.15C334.11 149.85 333.61 148.59 332.99 147.38C332.38 146.17 331.65 145.03 330.82 143.96C329.99 142.89 329.07 141.9 328.05 141C326.98 140.06 325.83 139.22 324.61 138.49C323.39 137.76 322.11 137.15 320.78 136.65C319.44 136.15 318.07 135.77 316.67 135.53C315.27 135.28 313.85 135.15 312.43 135.16L282 135.16L282 157.84C289.29 163.06 292.38 172.38 289.64 180.92C286.91 189.46 278.97 195.25 270 195.25C261.03 195.25 253.09 189.46 250.36 180.92C247.62 172.38 250.71 163.06 258 157.84L258 135.16L126.68 135.16L126.68 157.82C133.96 163.03 137.04 172.35 134.3 180.88C131.56 189.4 123.63 195.19 114.68 195.19C105.73 195.19 97.8 189.4 95.06 180.88C92.32 172.35 95.4 163.03 102.68 157.82L102.68 135.14L72.23 135.14C70.81 135.13 69.39 135.26 67.99 135.51C66.59 135.76 65.22 136.14 63.89 136.64C62.56 137.14 61.28 137.76 60.06 138.49C58.84 139.22 57.7 140.06 56.63 141C55.62 141.9 54.69 142.89 53.86 143.96C53.03 145.04 52.31 146.18 51.7 147.39C51.09 148.6 50.59 149.86 50.21 151.17C49.84 152.47 49.59 153.8 49.46 155.15L31.9 348.86C31.55 352.1 31.69 355.37 32.3 358.57C32.91 361.77 34 364.86 35.52 367.74C37.04 370.62 38.98 373.26 41.28 375.57C43.57 377.88 46.2 379.84 49.07 381.38C72.18 394.31 101.5 370.16 125.73 350.16C131.66 345.22 137.38 340.53 142.73 336.53C145.03 334.83 147.85 334.01 150.7 334.21C153.55 334.42 156.23 335.64 158.26 337.66C160.28 339.67 161.52 342.35 161.74 345.19C161.96 348.04 161.16 350.88 159.47 353.18C155.25 358.98 149.88 365.55 144.1 372.62C121.76 400 92.6 435.75 104.35 458.93C105.67 461.65 107.36 464.16 109.39 466.4C111.41 468.64 113.75 470.57 116.32 472.15C118.9 473.73 121.68 474.93 124.6 475.72C127.51 476.51 130.52 476.88 133.54 476.82L339.23 476.82C340.85 476.86 342.47 476.73 344.06 476.41C345.66 476.09 347.21 475.6 348.69 474.93C350.17 474.27 351.57 473.44 352.86 472.46C354.16 471.48 355.34 470.36 356.38 469.12C356.91 468.54 357.41 467.93 357.87 467.29C358.34 466.65 358.77 465.99 359.16 465.31C359.56 464.63 359.92 463.93 360.24 463.21C360.56 462.49 360.84 461.75 361.08 461Z" />
	<path id="Layer" fill-rule="evenodd" class="shp0" d="M191.88 370.13C190.15 371.77 188.11 373.06 185.88 373.91C183.65 374.77 181.27 375.17 178.88 375.11C176.49 375.04 174.14 374.51 171.96 373.54C169.78 372.57 167.81 371.17 166.17 369.44L127.8 328.99C126.16 327.26 124.87 325.22 124.02 322.99C123.16 320.76 122.76 318.38 122.82 315.99C122.89 313.6 123.42 311.25 124.39 309.07C125.36 306.89 126.76 304.92 128.49 303.28L211.32 224.73C211.86 224.22 212.44 223.76 213.05 223.34C213.67 222.93 214.32 222.57 214.99 222.26C215.66 221.96 216.36 221.71 217.08 221.52C217.79 221.32 218.52 221.19 219.26 221.12L272 216.23C274 216.06 276.02 216.34 277.9 217.05C279.78 217.77 281.48 218.9 282.86 220.36C284.24 221.82 285.27 223.58 285.88 225.5C286.49 227.42 286.65 229.45 286.36 231.44L278.67 283.84C278.56 284.57 278.39 285.29 278.16 286C277.94 286.7 277.65 287.39 277.31 288.04C276.97 288.7 276.58 289.33 276.14 289.92C275.69 290.51 275.2 291.07 274.67 291.58L191.88 370.13ZM253.44 237.51C253.14 238.37 252.97 239.28 252.95 240.19C252.92 241.1 253.04 242.02 253.3 242.89C253.56 243.77 253.95 244.6 254.47 245.35C256.61 248.47 260.51 249.85 264.13 248.78C267.76 247.71 270.28 244.43 270.38 240.65C270.48 236.87 268.13 233.46 264.57 232.2C261.01 230.94 257.04 232.12 254.74 235.12C254.18 235.85 253.75 236.65 253.44 237.51Z" />
	<path id="Layer" class="shp1" d="M488.06 96.91C487.57 96.51 487.1 96.08 486.65 95.63C486.21 95.17 485.8 94.69 485.41 94.18C485.03 93.68 484.68 93.15 484.36 92.6C484.02 92.05 483.72 91.47 483.45 90.87C483.19 90.28 482.97 89.67 482.79 89.04C482.61 88.42 482.47 87.78 482.37 87.13C482.28 86.49 482.23 85.84 482.22 85.19C482.23 84.55 482.28 83.91 482.38 83.28C482.48 82.64 482.61 82.02 482.8 81.4C482.98 80.78 483.2 80.18 483.46 79.6C483.72 79.01 484.02 78.44 484.36 77.9C484.65 77.32 484.99 76.76 485.37 76.22C485.75 75.69 486.17 75.19 486.63 74.72C487.09 74.25 487.58 73.82 488.11 73.43C488.63 73.04 489.18 72.69 489.76 72.38C490.85 71.76 492.01 71.29 493.22 70.97C494.43 70.65 495.67 70.49 496.92 70.49C498.17 70.49 499.41 70.65 500.62 70.97C501.83 71.29 502.99 71.76 504.08 72.38C504.67 72.68 505.24 73.03 505.77 73.41C506.31 73.8 506.81 74.23 507.28 74.7C507.75 75.17 508.18 75.67 508.57 76.21C508.96 76.74 509.31 77.31 509.61 77.9C509.93 78.45 510.22 79.02 510.46 79.61C510.71 80.2 510.92 80.8 511.09 81.41C511.26 82.03 511.39 82.65 511.47 83.28C511.56 83.92 511.61 84.55 511.61 85.19C511.61 85.83 511.57 86.48 511.49 87.12C511.41 87.76 511.29 88.39 511.13 89.01C510.97 89.64 510.77 90.25 510.54 90.85C510.3 91.45 510.03 92.03 509.72 92.6C509.39 93.15 509.03 93.69 508.64 94.2C508.25 94.71 507.82 95.19 507.36 95.64C506.91 96.1 506.43 96.53 505.92 96.92C505.41 97.31 504.87 97.67 504.32 98C503.75 98.3 503.17 98.57 502.57 98.81C501.97 99.04 501.35 99.24 500.73 99.4C500.11 99.56 499.47 99.68 498.83 99.76C498.2 99.84 497.55 99.89 496.91 99.89C496.28 99.89 495.64 99.85 495.01 99.76C494.38 99.68 493.76 99.56 493.15 99.4C492.53 99.24 491.93 99.05 491.34 98.81C490.75 98.58 490.18 98.31 489.62 98C489.08 97.67 488.56 97.3 488.06 96.91Z" />
	<path id="Layer" class="shp1" d="M450.82 96.95C450.31 96.56 449.82 96.13 449.36 95.68C448.91 95.22 448.48 94.73 448.09 94.22C447.71 93.7 447.35 93.16 447.04 92.6C446.7 92.05 446.4 91.47 446.13 90.87C445.87 90.28 445.65 89.67 445.47 89.04C445.29 88.42 445.15 87.78 445.05 87.13C444.96 86.49 444.91 85.84 444.9 85.19C444.91 84.55 444.96 83.91 445.06 83.28C445.16 82.64 445.29 82.02 445.48 81.4C445.66 80.78 445.88 80.18 446.14 79.6C446.4 79.01 446.7 78.44 447.04 77.9C447.33 77.32 447.67 76.76 448.05 76.22C448.43 75.69 448.85 75.19 449.31 74.72C449.77 74.25 450.26 73.82 450.79 73.43C451.31 73.04 451.86 72.69 452.44 72.38C453.53 71.76 454.69 71.29 455.9 70.97C457.11 70.65 458.35 70.49 459.6 70.49C460.85 70.49 462.09 70.65 463.3 70.97C464.51 71.29 465.67 71.76 466.76 72.38C467.35 72.68 467.92 73.03 468.45 73.41C468.99 73.8 469.49 74.23 469.96 74.7C470.43 75.17 470.86 75.67 471.25 76.21C471.64 76.74 471.99 77.31 472.29 77.9C472.61 78.45 472.9 79.02 473.15 79.61C473.39 80.19 473.6 80.8 473.77 81.41C473.94 82.03 474.07 82.65 474.16 83.28C474.24 83.92 474.29 84.55 474.29 85.19C474.29 85.83 474.25 86.48 474.17 87.12C474.09 87.76 473.97 88.39 473.81 89.01C473.65 89.64 473.45 90.25 473.22 90.85C472.98 91.45 472.71 92.03 472.4 92.6C472.09 93.16 471.74 93.71 471.35 94.22C470.96 94.74 470.53 95.22 470.08 95.68C469.62 96.13 469.14 96.56 468.62 96.95C468.11 97.34 467.56 97.69 467 98C466.43 98.3 465.85 98.57 465.25 98.81C464.65 99.04 464.04 99.24 463.41 99.39C462.79 99.55 462.16 99.68 461.52 99.76C460.88 99.84 460.24 99.88 459.6 99.89C458.98 99.89 458.35 99.85 457.73 99.77C457.11 99.69 456.5 99.57 455.9 99.41C455.29 99.25 454.7 99.05 454.12 98.82C453.55 98.58 452.98 98.31 452.44 98C451.88 97.69 451.34 97.33 450.82 96.95Z" />
	<path id="Layer" fill-rule="evenodd" class="shp1" d="M951.94 124.79L951.94 193.03C951.93 223.34 937.11 238.5 907.47 238.5L883.98 238.5C874.18 238.25 869.32 233.35 869.41 223.8C868.74 233.52 863.67 238.42 854.21 238.5L819.29 238.5C809.48 238.25 804.67 233.35 804.84 223.8C804.25 233.43 799.15 238.33 789.52 238.5L468.52 238.5C438.71 238.51 423.8 223.6 423.8 193.78L423.8 154.46C423.81 124.82 438.5 110 467.89 110L491.5 110.09C495.94 110.6 499.87 113.07 503.3 117.5C503.3 107.54 508.2 102.56 518 102.56C528 102.56 533 107.54 533 117.5L533 208.7L540.43 208.7C544.92 208.7 551.47 208.74 560.09 208.83L567 208.83L567 101.55C556.83 101.55 551.83 96.78 552 87.23C552.04 77.18 557.04 72.03 567 71.78L581.75 71.78C591.63 72.03 596.57 77.06 596.57 86.85L596.57 114.24C599 111.31 602.77 109.84 607.88 109.84L691.54 109.84C721.18 109.85 736 125 736 155.31L736 208.82L753.5 208.82L789.43 208.69L789.43 124.69C789.42 114.9 794.28 110 804 110C814 110 819.08 115.01 819.24 125.03L819.11 208.69L854.16 208.69L854.16 124.69C854.16 114.9 858.97 110 868.6 110C878.65 110 883.76 115.02 883.93 125.07L883.68 208.73L907.29 208.86C917.34 208.85 922.37 203.79 922.37 193.66L922.37 125.07C922.37 115.02 927.31 110 937.19 110C946.99 110 951.91 114.93 951.94 124.79ZM503.31 139.49L491.51 139.74L468.14 139.74C458.35 139.74 453.45 144.76 453.45 154.81L453.45 194C453.44 203.8 458.34 208.7 468.14 208.7L503.31 208.7L503.31 139.49ZM706.43 154.69C706.44 144.38 701.41 139.23 691.36 139.23L596.52 139.23L596.52 208.83L706.43 208.83L706.43 154.69Z" />
	<path id="Layer" fill-rule="evenodd" class="shp1" d="M1082.15 154.56L1082.15 232.64C1082.15 262.95 1067.33 278.11 1037.68 278.11L1026.38 278.11C1016.49 278.12 1011.55 273.22 1011.55 263.42L1011.55 263.17C1011.54 253.37 1016.49 248.47 1026.38 248.47L1037.56 248.47C1045.68 248.47 1050.49 245.14 1052 238.47L1017.62 238.47C988.06 238.47 973.28 223.65 973.28 194L973.28 154.56C973.29 124.75 988.19 109.84 1018 109.84L1037.56 109.84C1067.29 109.85 1082.15 124.75 1082.15 154.56ZM1052.65 153.93C1052.64 144.38 1047.62 139.61 1037.58 139.61L1017.58 139.61C1007.87 139.62 1003.01 144.6 1003.01 154.56L1003.01 193.51C1003.01 203.73 1007.87 208.84 1017.58 208.84L1052.63 208.84L1052.65 153.93Z" />
	<path id="Layer" class="shp1" d="M466.26 493.45C436.11 493.45 421.04 478.04 421.04 447.23L421.04 377.89C421.04 367.84 426.06 362.82 436.11 362.81C446.16 362.8 451.18 367.91 451.18 378.14L451.18 447.85C451.18 458.15 456.29 463.3 466.51 463.3L491.63 463.3L491.38 377.89C491.38 367.84 496.4 362.82 506.45 362.81C516.5 362.8 521.52 367.91 521.53 378.14L521.53 447.85C521.53 458.15 526.64 463.3 536.85 463.3L561.72 463.3L561.72 378.39C561.72 368.17 566.83 363.06 577.05 363.06C586.93 363.06 591.87 368.17 591.87 378.39L591.87 478.5C591.87 488.5 586.76 493.57 576.55 493.7L466.26 493.45Z" />
	<path id="Layer" fill-rule="evenodd" class="shp1" d="M727.28 478.38C727.28 488.6 722.38 493.71 712.59 493.7C702.29 493.7 697.14 488.59 697.14 478.38L697.14 453.38L647.27 453.25L647.14 478.38C647.14 488.6 642.12 493.71 632.07 493.7C622.02 493.69 617 488.67 617 478.63L617 409.29C617 378.47 632.08 363.06 662.23 363.06L712.23 363.19C722.28 363.19 727.3 368.13 727.3 378.01L727.28 478.38ZM697.14 423.11L697.14 393.21L662.47 393.21C652.25 393.21 647.14 398.36 647.14 408.66L647.14 423.11L697.14 423.11Z" />
	<path id="Layer" class="shp1" d="M853.4 378C853.32 387.88 848.42 392.95 838.7 393.2L798.38 393.2C788.16 393.2 783.05 396.59 783.06 403.38C783.06 409.82 788.21 413.04 798.51 413.05L808.31 413.05C838.37 413.55 853.32 426.95 853.15 453.24C853.07 479.91 838.12 493.31 808.31 493.44L767.61 493.32C757.98 493.4 753.08 488.79 752.91 479.5C753.08 469.03 757.93 463.75 767.48 463.67L808.05 463.67C818.05 463.67 823.12 460.28 823.25 453.5C823.25 446.8 818.31 443.41 808.43 443.32L798.63 443.32C768.32 443.49 753.16 429.96 753.16 402.75C753.08 376.29 768.08 363.06 798.16 363.05L838.36 363.05C848.39 363.06 853.41 368.04 853.4 378Z" />
	<path id="Layer" class="shp1" d="M949.25 478.88C949.25 488.76 944.22 493.7 934.17 493.7L923.87 493.7C893.72 493.7 878.65 478.29 878.65 447.48L878.65 348C878.65 337.95 883.67 332.93 893.72 332.93C903.77 332.93 908.79 337.95 908.8 348L908.8 363L933.29 363.12C943.84 363.04 949.11 368.04 949.12 378.12C949.12 387.92 944.01 392.92 933.8 393.12L908.8 393.12L908.8 448.39C908.8 458.61 913.91 463.72 924.12 463.72L934.42 463.84C944.3 463.73 949.24 468.75 949.25 478.88Z" />
	<path id="Layer" fill-rule="evenodd" class="shp1" d="M1084.16 478.38C1084.16 488.6 1079.26 493.71 1069.46 493.7C1059.16 493.7 1054.01 488.59 1054.01 478.38L1054.01 453.38L1004.14 453.25L1004.01 478.38C1004.01 488.6 998.99 493.71 988.94 493.7C978.89 493.69 973.87 488.67 973.87 478.63L973.87 409.29C973.87 378.47 988.94 363.06 1019.09 363.06L1069.09 363.19C1079.14 363.19 1084.17 368.13 1084.17 378.01L1084.16 478.38ZM1054 423.11L1054 393.21L1019.33 393.21C1009.11 393.21 1004 398.36 1004 408.66L1004 423.11L1054 423.11Z" />
</svg>