<svg xmlns="http://www.w3.org/2000/svg" viewBox="0 0 1097.3 506.76"><defs><style>.cls-1{fill:#fff;}.cls-2{fill:#fa6342;}</style></defs><title>wastalogowhite</title><g id="Layer_1" data-name="Layer 1"><path class="cls-1" d="M488,95.63a15.27,15.27,0,0,0,7.28,1.88,16,16,0,0,0,7.41-1.88,15.29,15.29,0,0,0,5.41-5.4,15.58,15.58,0,0,0,1.88-7.42,14.49,14.49,0,0,0-2-7.28A12.63,12.63,0,0,0,502.39,70a14.57,14.57,0,0,0-14.32,0,12.83,12.83,0,0,0-5.4,5.53,14.33,14.33,0,0,0-2.13,7.28,14.54,14.54,0,0,0,2.13,7.42A15.57,15.57,0,0,0,488,95.63Z"/><path class="cls-1" d="M450.76,95.63a14.62,14.62,0,0,0,7.16,1.88,16.05,16.05,0,0,0,7.42-1.88,14,14,0,0,0,5.4-5.4,15.58,15.58,0,0,0,1.88-7.42,14.49,14.49,0,0,0-2-7.28A12.61,12.61,0,0,0,465.09,70a14.59,14.59,0,0,0-14.33,0,12.83,12.83,0,0,0-5.4,5.53,14.33,14.33,0,0,0-2.13,7.28,14.54,14.54,0,0,0,2.13,7.42A14,14,0,0,0,450.76,95.63Z"/><path class="cls-1" d="M935.51,107.56q-14.82,0-14.82,15.07v68.59q0,15.21-15.07,15.2L882,206.29l.25-83.66q-.25-15.06-15.32-15.07-14.45,0-14.45,14.7v84h-35l.12-83.66q-.25-15.06-15.2-15.07-14.57,0-14.57,14.7v84l-35.93.13H734.28V152.91q0-45.48-44.47-45.47H606.15q-7.67,0-11.3,4.39V84.45q0-14.7-14.83-15.08H565.33q-15,.39-15,15.45-.25,14.33,15,14.32V206.42h-6.91q-12.95-.12-19.66-.13h-7.48V115.1q0-15-14.94-14.95-14.7,0-14.7,14.95-5.16-6.66-11.81-7.41l-23.61-.13q-44.1,0-44.1,44.47v39.32q0,44.72,44.72,44.72h321q14.44-.25,15.33-14.7-.25,14.31,14.44,14.7h34.92q14.19-.13,15.2-14.7-.12,14.31,14.57,14.7h23.49q44.47,0,44.47-45.48V122.38Q950.21,107.56,935.51,107.56ZM501.64,206.29H466.47q-14.7,0-14.7-14.69V152.41q0-15.07,14.7-15.08h23.36l11.81-.25Zm203.12.13H594.85V136.83h94.83q15.08,0,15.08,15.45Z"/><path class="cls-1" d="M1035.88,107.44h-19.6q-44.71,0-44.72,44.71V191.6q0,44.46,44.35,44.47h34.42q-2.26,10-14.45,10H1024.7q-14.82,0-14.82,14.7v.25q0,14.7,14.82,14.7H1036q44.46,0,44.46-45.47V152.15Q1080.47,107.44,1035.88,107.44Zm15.07,99h-35q-14.58,0-14.57-15.33V152.15q0-14.94,14.57-14.94h20q15.07,0,15.07,14.32Z"/></g><g id="Layer_4" data-name="Layer 4"><path class="cls-1" d="M464.58,491.05q-45.22,0-45.22-46.23V375.48q0-15.08,15.07-15.07t15.08,15.32v69.72q0,15.45,15.32,15.45H490l-.25-85.42q0-15.08,15.08-15.07t15.07,15.32v69.72q0,15.45,15.33,15.45h24.87V376q0-15.32,15.32-15.32,14.82,0,14.83,15.32V476.1q0,14.94-15.33,15.2Z"/><path class="cls-1" d="M725.61,476q0,15.33-14.7,15.33-15.45,0-15.45-15.33V451l-49.87-.12L645.47,476q0,15.33-15.08,15.33t-15.07-15.08V406.88q0-46.22,45.22-46.22l50,.12q15.08,0,15.08,14.83ZM695.46,420.7V390.81H660.79q-15.33,0-15.32,15.45V420.7Z"/><path class="cls-1" d="M851.73,375.61q-.13,14.82-14.7,15.2H796.71q-15.33,0-15.33,10.17,0,9.67,15.45,9.67h9.8q45.09.77,44.84,40.2-.12,39.94-44.84,40.2l-40.7-.13q-14.45.13-14.7-13.82.25-15.69,14.57-15.82h40.58q14.94,0,15.2-10.18,0-10.05-14.82-10.17H797q-45.48.24-45.48-40.58-.12-39.69,45-39.69h40.19Q851.73,360.66,851.73,375.61Z"/><path class="cls-1" d="M947.57,476.47q0,14.83-15.07,14.83H922.2Q877,491.3,877,445.07V345.58q0-15.07,15.08-15.07t15.07,15.07v14.95l24.5.13q15.82-.14,15.82,14.95,0,14.68-15.32,14.94h-25v55.27q0,15.33,15.33,15.33l10.3.13Q947.57,461.28,947.57,476.47Z"/><path class="cls-1" d="M1082.48,476q0,15.33-14.7,15.33-15.45,0-15.45-15.33V451l-49.87-.12-.12,25.12q0,15.33-15.08,15.33t-15.07-15.08V406.88q0-46.22,45.22-46.22l50,.12q15.08,0,15.07,14.83Zm-30.15-55.27V390.81h-34.67q-15.31,0-15.32,15.45V420.7Z"/></g><g id="Layer_3" data-name="Layer 3"><path class="cls-2" d="M384.15,446.28,357.34,150.59a45.21,45.21,0,0,0-15.07-29.85,47.37,47.37,0,0,0-31.52-11.94H280.32V94.56a89.66,89.66,0,0,0-179.31,0V108.8H70.56A47.39,47.39,0,0,0,39,120.74,45.33,45.33,0,0,0,24,150.59L6.42,344.3a56.73,56.73,0,0,0,29.23,55.53c19,10.63,37.66,8.14,55.38-.11-13.32,22.35-20.67,45.9-9.7,67.51a55.82,55.82,0,0,0,50.53,31.07h205.7a46.09,46.09,0,0,0,35-15.72,45.77,45.77,0,0,0,9.65-16.82A49.57,49.57,0,0,0,384.15,446.28ZM125,94.56a65.7,65.7,0,0,1,131.4,0V108.8H125Zm234.44,364a22,22,0,0,1-4.69,8.13,21.7,21.7,0,0,1-17.15,7.69H131.86a31.72,31.72,0,0,1-29.19-17.89c-11.74-23.12,17.41-58.85,39.76-86.25,5.77-7.08,11.14-13.65,15.37-19.44a11.94,11.94,0,0,0-16.75-16.65c-5.35,4-11.07,8.68-17,13.62-24.22,20-53.55,44.16-76.65,31.23a33,33,0,0,1-17.18-32.53L47.74,152.74A21.65,21.65,0,0,1,55,138.61a23.5,23.5,0,0,1,15.61-5.85H101v22.68a20.61,20.61,0,1,0,23.95,0V132.76h131.4v22.68a20.62,20.62,0,1,0,24,0V132.76h30.43a23.52,23.52,0,0,1,15.62,5.85,21.49,21.49,0,0,1,7.19,14.13l26.81,295.69A25.56,25.56,0,0,1,359.4,458.54Z"/></g><g id="Layer_2" data-name="Layer 2"><path class="cls-2" d="M273,289.17a13.37,13.37,0,0,0,4-7.74l7.68-52.4a13.33,13.33,0,0,0-14.42-15.2l-52.73,4.89a13.39,13.39,0,0,0-7.94,3.6l-82.84,78.55a18.19,18.19,0,0,0-.68,25.71L164.44,367a18.19,18.19,0,0,0,25.71.68Zm-19.93-56.45a8.72,8.72,0,1,1-.27,10.22A8.73,8.73,0,0,1,253.06,232.72Z"/></g></svg>